<?xml version="1.0" encoding="utf-8"?>
<!-- Generator: Adobe Illustrator 19.0.0, SVG Export Plug-In . SVG Version: 6.00 Build 0)  -->
<svg version="1.1" id="Laag_1" xmlns="http://www.w3.org/2000/svg" xmlns:xlink="http://www.w3.org/1999/xlink" x="0px" y="0px"
	 viewBox="0 0 566.9 566.9" style="enable-background:new 0 0 566.9 566.9;" xml:space="preserve">
<style type="text/css">
	.st0{fill:#FFFFFF;}
</style>
<path id="XMLID_30_" class="st0" d="M313.4,501.4c-25.5,0-51.1,0-76.6,0c1.9-8.8,4.1-17.6,5.8-26.5c2.5-13.2,6-26.4,6.5-39.7
	c0.7-20.4-0.8-40.8-1.3-61.2c-0.1-2.9-0.4-4.9-4.2-4.6c-1.9,0.2-4-0.4-5.7-1.3c-8.3-4.4-16.5-8.8-24.5-13.6c-3-1.8-5.3-2.2-8.5-0.8
	c-14.8,6.7-30.2,7-45.5,1.9c-25.9-8.6-43.5-33.7-43.5-61c0-1.7-1-3.7-2.1-5c-3.7-4.6-8.3-8.6-11.3-13.5
	c-12.1-19.7-13.5-40.3-3.8-61.4c4.5-9.9,11.2-18.1,20.2-24.2c2.5-1.7,3.3-3.7,3.3-6.9c-0.1-22.3,9.1-40.2,27.2-53.2
	c12.1-8.6,25.8-12.5,40.7-11.3c2.3,0.2,3.9,0.1,4.6-3c5.5-23.8,19.8-40.2,43.2-47.4c25.7-8,48-1.2,66.5,18.2
	c3.2,3.4,5.8,7.4,8.2,10.5c7.6-2.4,14.9-5.5,22.4-6.9c17.4-3.4,33.5,0.7,47.8,10.7c9.7,6.8,17.1,15.9,21.6,27.1
	c0.8,1.9,1.9,2.8,4,3.1c10.4,1.6,19.9,5.4,28.3,11.6c21.3,15.5,32,44,23.1,70.8c-0.9,2.8-0.2,4.7,1.5,6.9
	c11.4,14.6,15.7,31.3,12.5,49.4c-4,22.7-16.9,38.9-38,48.5c-1.4,0.6-2.8,2.5-3,4c-2.1,12.8-7.2,24.3-16.1,33.7
	c-17.4,18.4-38.9,24.5-63.4,18.6c-6.9-1.7-13.3-5.1-18.8-7.4c-6.6,6.1-13.1,12.5-20,18.2c-6.3,5.3-8.6,11.9-9.7,19.8
	c-2.6,18.3-4.1,36.4,0,54.6C307.6,473.8,310.4,487.6,313.4,501.4z M306,321.6c-5.5,1.7-10.1,3.4-10.7,10c-0.5,4.7-2.4,9.2-3,13.9
	c-0.8,6.4-1.7,12.9-1.4,19.3c0.2,5.6,3.8,7.2,9,5.2c8.3-3.1,15.1-8.4,21.9-14.4C313.3,345.8,308,334.7,306,321.6z M246.3,323.7
	c1.1,2.2,2,4.6,3.3,6.7c4.9,7.9,9.7,16,15.1,23.6c3.4,4.8,7.7,4.7,10.4,0.3c4.6-7.6,5.7-16.2,7.4-25.2
	C269.8,330.4,258,328.5,246.3,323.7z M249.5,351c-4.3-9-8.3-17.3-12.4-25.9c-4.3,5.7-8.2,11-12.5,16.7
	C232.1,346.2,239.3,351.2,249.5,351z"/>
</svg>
