<?xml version="1.0" encoding="utf-8"?>
<!-- Generator: Adobe Illustrator 19.0.0, SVG Export Plug-In . SVG Version: 6.00 Build 0)  -->
<svg version="1.1" id="Laag_1" xmlns="http://www.w3.org/2000/svg" xmlns:xlink="http://www.w3.org/1999/xlink" x="0px" y="0px"
	 viewBox="0 0 529.7 454.6" style="enable-background:new 0 0 529.7 454.6;" xml:space="preserve">
<g id="K7vauH.tif">
	<g id="XMLID_1_">
		<path id="XMLID_32_" d="M17.7,141.6c0-1,0-2,0-3c1.4-1.2,2.8-2.2,4-3.5c32.5-34.4,65-68.8,97.4-103.3c2.5-2.6,4.9-3.8,8.6-3.8
			c18,0.2,36,0.1,54,0c2.3,0,4.5,0,6.6,0c0,6.4,0.5,12.1-0.2,17.7c-0.4,3.1,0.3,4.9,2.5,6.8c25.6,21.6,51.1,43.3,76.6,65
			c5.8,4.9,9.7,5,15.4,0.1C307.8,95.8,333,74,358.1,52.1c1.4-1.2,1.9-3.9,1.9-5.9c0-5.9-0.5-11.8-0.9-18.1c2.6,0,4.3,0,5.9,0
			c17.5,0,35,0.1,52.5-0.1c3.5,0,5.8,1.1,8.2,3.6c34.6,36,69.3,72,104,108c0,0.7,0,1.3,0,2c-7.7,13.8-15.3,27.6-23,41.3
			c-3.6,6.5-7.2,13-11,19.9c-13.2-8.6-25.9-17-38.9-25.1c-2.3-1.4-6.3-2-8.5-0.9c-1.9,0.9-3.5,4.8-3.5,7.3
			c-0.2,79.8-0.1,159.6-0.1,239.5c0,10.3,0,20.6,0,30.9c-114.1,0-227.6,0-341.2,0c-0.1-1.3-0.2-2.1-0.2-2.9
			c0-89.8,0.1-179.6-0.1-269.5c0-2.6-1.2-6-3-7.8c-2.7-2.6-6.5-2-9.7,0.1c-3.6,2.3-7.2,4.7-10.9,7.1c-8.9,5.8-17.7,11.6-26.8,17.6
			c-5.9-9.8-11.5-19.3-17.2-28.6C29.8,160.9,23.7,151.3,17.7,141.6z"/>
		<path id="XMLID_26_" d="M273.7,94.6c-13.4-12.2-26.4-24-39.4-35.9c-6.7-6-13.3-12.1-20-18.1c-6.6-6-6.6-18.6,0.3-24.6
			c6.9-6.1,15.3-9.4,24.1-11.5c27.1-6.4,54-6.4,80.5,2.9c2.8,1,5.5,2.3,8.1,3.8c10.7,6,13.5,12.1,11,24c-0.2,1.2-1.1,2.4-2.1,3.2
			C315.5,57,294.8,75.6,273.7,94.6z"/>
	</g>
</g>
</svg>
